STARTFONT 2.1
COMMENT  
COMMENT  WARNING:  This bdf file was generated from an X server using
COMMENT  xbdfdump.  The resulting font is subject to the same copyright,
COMMENT  license, and trademark restrictions as the original font.  The
COMMENT  author and distributors of xbdfdump disclaim all liability for
COMMENT  misuse of the program or its output.
COMMENT  
FONT -phaisarn-angsana-bold-r-normal--12-120-75-75-p-75-tis620-0
SIZE 12 75 75
FONTBOUNDINGBOX 28 35 -9 -11
STARTPROPERTIES 26
FOUNDRY "Phaisarn"
FAMILY_NAME "Angsana"
WEIGHT_NAME "bold"
SLANT "r"
SETWIDTH_NAME "normal"
ADD_STYLE_NAME ""
PIXEL_SIZE 12
POINT_SIZE 120
RESOLUTION_X 75
RESOLUTION_Y 75
SPACING "p"
AVERAGE_WIDTH 75
CHARSET_REGISTRY "tis620"
CHARSET_ENCODING "0"
COPYRIGHT "Angsana by Pt-TITech 1997"
RAW_PIXELSIZE 1000
RAW_POINTSIZE "N"
RAW_ASCENT "CIRCUMFLEX_ACCENT"
RAW_DESCENT "RAW_FIGURE_WIDTH"
RAW_AVERAGE_WIDTH 2994
FACE_NAME "Angsana Bold"
WEIGHT 10
X_HEIGHT 7
QUAD_WIDTH 10
FONT_ASCENT 20
FONT_DESCENT 10
ENDPROPERTIES
CHARS 199
STARTCHAR space
ENCODING 32
SWIDTH 320 0
DWIDTH 4 0
BBX 0 0 0 0
BITMAP
ENDCHAR
STARTCHAR exclam
ENCODING 33
SWIDTH 400 0
DWIDTH 5 0
BBX 1 11 2 0
BITMAP
80
80
80
80
80
80
80
00
80
80
80
ENDCHAR
STARTCHAR quotedbl
ENCODING 34
SWIDTH 720 0
DWIDTH 9 0
BBX 6 5 1 6
BITMAP
cc
cc
cc
cc
44
ENDCHAR
STARTCHAR numbersign
ENCODING 35
SWIDTH 640 0
DWIDTH 8 0
BBX 7 11 1 0
BITMAP
22
22
24
24
44
44
44
fe
48
48
88
ENDCHAR
STARTCHAR dollar
ENCODING 36
SWIDTH 640 0
DWIDTH 8 0
BBX 6 12 1 -1
BITMAP
30
5c
d4
d0
f0
78
1c
1c
9c
9c
f8
10
ENDCHAR
STARTCHAR percent
ENCODING 37
SWIDTH 1280 0
DWIDTH 16 0
BBX 14 11 1 0
BITMAP
2020
5020
d840
d880
5100
2110
0228
046c
086c
0828
1010
ENDCHAR
STARTCHAR ampersand
ENCODING 38
SWIDTH 1040 0
DWIDTH 13 0
BBX 11 11 1 0
BITMAP
0c00
1300
1300
3200
1ca0
3840
dc40
ce80
c700
e7e0
79c0
ENDCHAR
STARTCHAR apostrophe
ENCODING 39
SWIDTH 320 0
DWIDTH 4 0
BBX 2 5 1 6
BITMAP
c0
c0
c0
c0
40
ENDCHAR
STARTCHAR parenleft
ENCODING 40
SWIDTH 400 0
DWIDTH 5 0
BBX 4 14 1 -3
BITMAP
10
20
60
40
c0
c0
c0
c0
c0
c0
40
60
20
10
ENDCHAR
STARTCHAR parenright
ENCODING 41
SWIDTH 400 0
DWIDTH 5 0
BBX 5 14 0 -3
BITMAP
80
60
30
10
18
18
18
18
18
18
10
30
60
80
ENDCHAR
STARTCHAR asterisk
ENCODING 42
SWIDTH 640 0
DWIDTH 8 0
BBX 6 6 1 5
BITMAP
30
30
d4
fc
58
48
ENDCHAR
STARTCHAR plus
ENCODING 43
SWIDTH 720 0
DWIDTH 9 0
BBX 8 9 1 1
BITMAP
10
10
10
10
ff
10
10
10
10
ENDCHAR
STARTCHAR comma
ENCODING 44
SWIDTH 320 0
DWIDTH 4 0
BBX 2 5 1 -3
BITMAP
80
c0
c0
40
80
ENDCHAR
STARTCHAR minus
ENCODING 45
SWIDTH 400 0
DWIDTH 5 0
BBX 5 2 0 3
BITMAP
f8
f8
ENDCHAR
STARTCHAR period
ENCODING 46
SWIDTH 320 0
DWIDTH 4 0
BBX 3 3 0 -1
BITMAP
e0
e0
e0
ENDCHAR
STARTCHAR slash
ENCODING 47
SWIDTH 320 0
DWIDTH 4 0
BBX 4 11 0 0
BITMAP
10
10
20
20
20
20
40
40
40
80
80
ENDCHAR
STARTCHAR 0
ENCODING 48
SWIDTH 640 0
DWIDTH 8 0
BBX 6 11 1 0
BITMAP
20
50
58
dc
dc
dc
dc
dc
58
50
20
ENDCHAR
STARTCHAR 1
ENCODING 49
SWIDTH 640 0
DWIDTH 8 0
BBX 5 11 1 0
BITMAP
10
f0
30
30
30
30
30
30
30
30
f8
ENDCHAR
STARTCHAR 2
ENCODING 50
SWIDTH 640 0
DWIDTH 8 0
BBX 7 11 1 0
BITMAP
38
7c
9c
0c
0c
08
10
10
22
7c
fc
ENDCHAR
STARTCHAR 3
ENCODING 51
SWIDTH 640 0
DWIDTH 8 0
BBX 7 11 0 0
BITMAP
38
7c
8c
0c
18
3e
0e
06
06
c4
78
ENDCHAR
STARTCHAR 4
ENCODING 52
SWIDTH 640 0
DWIDTH 8 0
BBX 7 11 1 0
BITMAP
08
18
18
38
58
58
98
fe
fe
18
18
ENDCHAR
STARTCHAR 5
ENCODING 53
SWIDTH 640 0
DWIDTH 8 0
BBX 6 11 1 0
BITMAP
7c
7c
40
f0
f8
78
0c
04
04
c4
f8
ENDCHAR
STARTCHAR 6
ENCODING 54
SWIDTH 640 0
DWIDTH 8 0
BBX 6 11 1 0
BITMAP
0c
30
60
40
f8
cc
cc
cc
cc
68
30
ENDCHAR
STARTCHAR 7
ENCODING 55
SWIDTH 640 0
DWIDTH 8 0
BBX 7 11 1 0
BITMAP
fe
fe
84
04
0c
08
08
18
10
10
30
ENDCHAR
STARTCHAR 8
ENCODING 56
SWIDTH 640 0
DWIDTH 8 0
BBX 6 11 1 0
BITMAP
30
48
cc
ec
78
38
5c
cc
cc
48
30
ENDCHAR
STARTCHAR 9
ENCODING 57
SWIDTH 640 0
DWIDTH 8 0
BBX 6 11 1 0
BITMAP
30
58
dc
cc
cc
cc
7c
18
18
30
40
ENDCHAR
STARTCHAR colon
ENCODING 58
SWIDTH 400 0
DWIDTH 5 0
BBX 3 8 1 0
BITMAP
e0
e0
e0
00
00
e0
e0
e0
ENDCHAR
STARTCHAR semicolon
ENCODING 59
SWIDTH 400 0
DWIDTH 5 0
BBX 3 11 1 -3
BITMAP
e0
e0
e0
00
00
c0
e0
e0
20
60
80
ENDCHAR
STARTCHAR less
ENCODING 60
SWIDTH 720 0
DWIDTH 9 0
BBX 8 8 1 1
BITMAP
01
06
38
e0
e0
38
06
01
ENDCHAR
STARTCHAR equal
ENCODING 61
SWIDTH 720 0
DWIDTH 9 0
BBX 8 4 1 3
BITMAP
ff
00
00
ff
ENDCHAR
STARTCHAR greater
ENCODING 62
SWIDTH 720 0
DWIDTH 9 0
BBX 8 8 1 1
BITMAP
80
60
1c
07
07
1c
60
80
ENDCHAR
STARTCHAR question
ENCODING 63
SWIDTH 640 0
DWIDTH 8 0
BBX 6 11 1 0
BITMAP
78
88
cc
4c
18
10
10
00
30
70
30
ENDCHAR
STARTCHAR at
ENCODING 64
SWIDTH 1200 0
DWIDTH 15 0
BBX 14 14 1 -3
BITMAP
0780
1860
2010
42c8
4588
8988
8988
9b10
9b10
9f64
4988
2010
30e0
0f00
ENDCHAR
STARTCHAR A
ENCODING 65
SWIDTH 960 0
DWIDTH 12 0
BBX 11 11 0 0
BITMAP
0400
0400
0600
0e00
0f00
1300
1300
1f80
2180
61c0
f3e0
ENDCHAR
STARTCHAR B
ENCODING 66
SWIDTH 880 0
DWIDTH 11 0
BBX 9 11 1 0
BITMAP
fe00
7380
7380
7380
7600
7f00
7380
7380
7380
7300
fe00
ENDCHAR
STARTCHAR C
ENCODING 67
SWIDTH 960 0
DWIDTH 12 0
BBX 11 11 1 0
BITMAP
0f20
38c0
7040
6020
e000
e000
e000
6000
7020
38c0
0f00
ENDCHAR
STARTCHAR D
ENCODING 68
SWIDTH 960 0
DWIDTH 12 0
BBX 11 11 0 0
BITMAP
fe00
3b00
39c0
38c0
38e0
38e0
38e0
38e0
39c0
3980
fe00
ENDCHAR
STARTCHAR E
ENCODING 69
SWIDTH 880 0
DWIDTH 11 0
BBX 10 11 1 0
BITMAP
ff00
7100
7280
7400
7400
7c00
7400
7240
7080
7180
ff80
ENDCHAR
STARTCHAR F
ENCODING 70
SWIDTH 800 0
DWIDTH 10 0
BBX 9 11 1 0
BITMAP
ff00
7100
7080
7200
7400
7c00
7400
7200
7000
7000
f800
ENDCHAR
STARTCHAR G
ENCODING 71
SWIDTH 960 0
DWIDTH 12 0
BBX 11 11 1 0
BITMAP
0e40
39c0
7040
6040
e000
e000
e3e0
e1c0
61c0
31c0
0f00
ENDCHAR
STARTCHAR H
ENCODING 72
SWIDTH 960 0
DWIDTH 12 0
BBX 11 11 1 0
BITMAP
fbe0
71c0
71c0
71c0
71c0
7fc0
71c0
71c0
71c0
71c0
fbe0
ENDCHAR
STARTCHAR I
ENCODING 73
SWIDTH 480 0
DWIDTH 6 0
BBX 5 11 1 0
BITMAP
f8
70
70
70
70
70
70
70
70
70
f8
ENDCHAR
STARTCHAR J
ENCODING 74
SWIDTH 640 0
DWIDTH 8 0
BBX 7 11 0 0
BITMAP
3e
1c
1c
1c
1c
1c
1c
5c
dc
58
70
ENDCHAR
STARTCHAR K
ENCODING 75
SWIDTH 960 0
DWIDTH 12 0
BBX 13 11 0 0
BITMAP
f8f0
3860
3880
3900
3a00
3e00
3b00
3b80
39c0
38e0
f9f8
ENDCHAR
STARTCHAR L
ENCODING 76
SWIDTH 880 0
DWIDTH 11 0
BBX 10 11 1 0
BITMAP
f800
7000
7000
7000
7000
7000
7000
7040
7080
7080
ff80
ENDCHAR
STARTCHAR M
ENCODING 77
SWIDTH 1200 0
DWIDTH 15 0
BBX 13 11 1 0
BITMAP
f078
70f0
78f0
58f0
5970
5d70
4d70
4e70
4470
4470
e4f8
ENDCHAR
STARTCHAR N
ENCODING 78
SWIDTH 960 0
DWIDTH 12 0
BBX 10 11 1 0
BITMAP
e3c0
7080
7880
5c80
4e80
4680
4780
4380
4180
4180
e080
ENDCHAR
STARTCHAR O
ENCODING 79
SWIDTH 960 0
DWIDTH 12 0
BBX 11 11 1 0
BITMAP
0e00
3180
71c0
e0e0
e0e0
e0e0
e0e0
e0c0
71c0
3980
0e00
ENDCHAR
STARTCHAR P
ENCODING 80
SWIDTH 800 0
DWIDTH 10 0
BBX 8 11 1 0
BITMAP
fc
76
77
77
76
7c
70
70
70
70
f8
ENDCHAR
STARTCHAR Q
ENCODING 81
SWIDTH 960 0
DWIDTH 12 0
BBX 11 14 1 -3
BITMAP
0e00
3180
71c0
60c0
e0e0
e0e0
e0e0
e0e0
71c0
71c0
1b00
0e00
0700
03c0
ENDCHAR
STARTCHAR R
ENCODING 82
SWIDTH 960 0
DWIDTH 12 0
BBX 11 11 1 0
BITMAP
fe00
7300
7380
7380
7300
7e00
7600
7700
7380
73c0
f9e0
ENDCHAR
STARTCHAR S
ENCODING 83
SWIDTH 720 0
DWIDTH 9 0
BBX 7 11 1 0
BITMAP
72
cc
c2
e0
f8
7c
1e
8e
86
c4
b8
ENDCHAR
STARTCHAR T
ENCODING 84
SWIDTH 880 0
DWIDTH 11 0
BBX 10 11 1 0
BITMAP
ff80
9c80
9c40
1c00
1c00
1c00
1c00
1c00
1c00
1c00
3e00
ENDCHAR
STARTCHAR U
ENCODING 85
SWIDTH 960 0
DWIDTH 12 0
BBX 10 11 1 0
BITMAP
f9c0
7080
7080
7080
7080
7080
7080
7080
7080
3900
1e00
ENDCHAR
STARTCHAR V
ENCODING 86
SWIDTH 960 0
DWIDTH 12 0
BBX 11 11 0 0
BITMAP
f9e0
70c0
7080
3080
3900
1900
1d00
0e00
0c00
0400
0400
ENDCHAR
STARTCHAR W
ENCODING 87
SWIDTH 1280 0
DWIDTH 16 0
BBX 16 11 0 0
BITMAP
fbe7
71c2
70c2
38e2
38e4
1d64
1d78
0d38
0e30
0430
0410
ENDCHAR
STARTCHAR X
ENCODING 88
SWIDTH 960 0
DWIDTH 12 0
BBX 11 11 0 0
BITMAP
f9e0
70c0
3880
1d00
1e00
0e00
0f00
1380
2380
61c0
f3e0
ENDCHAR
STARTCHAR Y
ENCODING 89
SWIDTH 960 0
DWIDTH 12 0
BBX 11 11 0 0
BITMAP
f8e0
7040
3080
1880
1d00
1d00
0e00
0e00
0e00
0e00
1f00
ENDCHAR
STARTCHAR Z
ENCODING 90
SWIDTH 880 0
DWIDTH 11 0
BBX 11 11 0 0
BITMAP
7f80
4380
4700
0600
0e00
1c00
1800
3820
7040
60c0
ffc0
ENDCHAR
STARTCHAR bracketleft
ENCODING 91
SWIDTH 400 0
DWIDTH 5 0
BBX 3 14 2 -3
BITMAP
e0
c0
c0
c0
c0
c0
c0
c0
c0
c0
c0
c0
c0
e0
ENDCHAR
STARTCHAR backslash
ENCODING 92
SWIDTH 320 0
DWIDTH 4 0
BBX 4 11 0 0
BITMAP
80
80
40
40
40
40
20
20
20
10
10
ENDCHAR
STARTCHAR bracketright
ENCODING 93
SWIDTH 400 0
DWIDTH 5 0
BBX 3 14 1 -3
BITMAP
e0
60
60
60
60
60
60
60
60
60
60
60
60
e0
ENDCHAR
STARTCHAR asciicircum
ENCODING 94
SWIDTH 720 0
DWIDTH 9 0
BBX 7 6 1 5
BITMAP
10
38
28
4c
44
82
ENDCHAR
STARTCHAR underscore
ENCODING 95
SWIDTH 640 0
DWIDTH 8 0
BBX 8 1 0 -3
BITMAP
ff
ENDCHAR
STARTCHAR grave
ENCODING 96
SWIDTH 400 0
DWIDTH 5 0
BBX 3 3 1 8
BITMAP
c0
60
20
ENDCHAR
STARTCHAR a
ENCODING 97
SWIDTH 640 0
DWIDTH 8 0
BBX 7 8 1 0
BITMAP
38
cc
cc
5c
6c
cc
dc
ee
ENDCHAR
STARTCHAR b
ENCODING 98
SWIDTH 720 0
DWIDTH 9 0
BBX 8 11 0 0
BITMAP
e0
60
60
6e
72
63
63
63
63
66
5c
ENDCHAR
STARTCHAR c
ENCODING 99
SWIDTH 560 0
DWIDTH 7 0
BBX 6 8 1 0
BITMAP
38
4c
4c
c0
c0
e0
74
38
ENDCHAR
STARTCHAR d
ENCODING 100
SWIDTH 720 0
DWIDTH 9 0
BBX 8 11 1 0
BITMAP
0e
06
06
36
6e
c6
c6
c6
c6
6e
77
ENDCHAR
STARTCHAR e
ENCODING 101
SWIDTH 560 0
DWIDTH 7 0
BBX 6 8 1 0
BITMAP
30
48
4c
cc
fc
c0
e4
78
ENDCHAR
STARTCHAR f
ENCODING 102
SWIDTH 400 0
DWIDTH 5 0
BBX 6 11 1 0
BITMAP
18
2c
64
60
f0
60
60
60
60
60
f0
ENDCHAR
STARTCHAR g
ENCODING 103
SWIDTH 640 0
DWIDTH 8 0
BBX 7 11 1 -3
BITMAP
30
4e
cc
cc
c8
30
40
fc
7e
86
78
ENDCHAR
STARTCHAR h
ENCODING 104
SWIDTH 720 0
DWIDTH 9 0
BBX 7 11 1 0
BITMAP
c0
c0
c0
dc
fe
c6
c6
c6
c6
c6
ee
ENDCHAR
STARTCHAR i
ENCODING 105
SWIDTH 320 0
DWIDTH 4 0
BBX 4 11 0 0
BITMAP
60
70
00
e0
60
60
60
60
60
70
f0
ENDCHAR
STARTCHAR j
ENCODING 106
SWIDTH 400 0
DWIDTH 5 0
BBX 4 14 0 -3
BITMAP
30
30
00
70
30
30
30
30
30
30
30
b0
b0
60
ENDCHAR
STARTCHAR k
ENCODING 107
SWIDTH 720 0
DWIDTH 9 0
BBX 8 11 1 0
BITMAP
c0
c0
c0
c0
ce
c4
c8
f8
cc
ce
ff
ENDCHAR
STARTCHAR l
ENCODING 108
SWIDTH 320 0
DWIDTH 4 0
BBX 4 11 0 0
BITMAP
e0
60
60
60
60
60
60
60
60
60
f0
ENDCHAR
STARTCHAR m
ENCODING 109
SWIDTH 1040 0
DWIDTH 13 0
BBX 12 8 1 0
BITMAP
dcc0
e760
c660
c660
c660
c660
c660
fff0
ENDCHAR
STARTCHAR n
ENCODING 110
SWIDTH 720 0
DWIDTH 9 0
BBX 7 8 1 0
BITMAP
dc
e6
c6
c6
c6
c6
c6
ee
ENDCHAR
STARTCHAR o
ENCODING 111
SWIDTH 640 0
DWIDTH 8 0
BBX 6 8 1 0
BITMAP
30
48
cc
cc
cc
cc
48
30
ENDCHAR
STARTCHAR p
ENCODING 112
SWIDTH 720 0
DWIDTH 9 0
BBX 8 11 0 -3
BITMAP
fe
66
63
63
63
63
76
6e
60
60
f0
ENDCHAR
STARTCHAR q
ENCODING 113
SWIDTH 720 0
DWIDTH 9 0
BBX 8 11 1 -3
BITMAP
3a
66
c6
c6
c6
c6
7e
06
06
06
0f
ENDCHAR
STARTCHAR r
ENCODING 114
SWIDTH 560 0
DWIDTH 7 0
BBX 6 8 1 0
BITMAP
cc
fc
c0
c0
c0
c0
c0
f0
ENDCHAR
STARTCHAR s
ENCODING 115
SWIDTH 480 0
DWIDTH 6 0
BBX 5 8 1 0
BITMAP
78
c8
c8
f0
78
98
98
f0
ENDCHAR
STARTCHAR t
ENCODING 116
SWIDTH 400 0
DWIDTH 5 0
BBX 5 10 0 0
BITMAP
10
20
60
f8
60
60
60
60
68
30
ENDCHAR
STARTCHAR u
ENCODING 117
SWIDTH 720 0
DWIDTH 9 0
BBX 8 7 0 0
BITMAP
e7
63
63
63
63
67
3b
ENDCHAR
STARTCHAR v
ENCODING 118
SWIDTH 640 0
DWIDTH 8 0
BBX 8 7 0 0
BITMAP
f3
61
72
32
3c
18
08
ENDCHAR
STARTCHAR w
ENCODING 119
SWIDTH 960 0
DWIDTH 12 0
BBX 11 7 0 0
BITMAP
ff60
6620
7740
3b40
3b80
1180
1100
ENDCHAR
STARTCHAR x
ENCODING 120
SWIDTH 640 0
DWIDTH 8 0
BBX 8 7 0 0
BITMAP
fe
7c
38
18
38
4c
ef
ENDCHAR
STARTCHAR y
ENCODING 121
SWIDTH 640 0
DWIDTH 8 0
BBX 8 10 0 -3
BITMAP
f7
e2
72
34
3c
18
18
08
d0
e0
ENDCHAR
STARTCHAR z
ENCODING 122
SWIDTH 560 0
DWIDTH 7 0
BBX 7 7 0 0
BITMAP
fc
9c
18
30
62
64
fc
ENDCHAR
STARTCHAR braceleft
ENCODING 123
SWIDTH 480 0
DWIDTH 6 0
BBX 5 14 1 -3
BITMAP
38
60
60
60
60
60
c0
40
60
60
60
60
60
38
ENDCHAR
STARTCHAR bar
ENCODING 124
SWIDTH 320 0
DWIDTH 4 0
BBX 1 14 1 -3
BITMAP
80
80
80
80
80
80
80
80
80
80
80
80
80
80
ENDCHAR
STARTCHAR braceright
ENCODING 125
SWIDTH 480 0
DWIDTH 6 0
BBX 4 14 1 -3
BITMAP
c0
60
60
60
60
60
30
30
60
60
60
60
60
c0
ENDCHAR
STARTCHAR asciitilde
ENCODING 126
SWIDTH 640 0
DWIDTH 8 0
BBX 9 3 0 3
BITMAP
7080
bd00
8e00
ENDCHAR
STARTCHAR exclamdown
ENCODING 161
SWIDTH 720 0
DWIDTH 9 0
BBX 8 10 1 0
BITMAP
3c
46
c7
f3
63
63
63
63
63
62
ENDCHAR
STARTCHAR cent
ENCODING 162
SWIDTH 800 0
DWIDTH 10 0
BBX 8 10 1 0
BITMAP
71
5b
db
bb
5b
1b
1b
1b
1b
0e
ENDCHAR
STARTCHAR sterling
ENCODING 163
SWIDTH 880 0
DWIDTH 11 0
BBX 9 10 1 0
BITMAP
5880
7d80
ad80
8d80
ad80
6d80
0d80
0d80
0d80
0700
ENDCHAR
STARTCHAR currency
ENCODING 164
SWIDTH 800 0
DWIDTH 10 0
BBX 8 10 1 0
BITMAP
3c
6e
c7
b3
eb
6b
73
63
63
63
ENDCHAR
STARTCHAR yen
ENCODING 165
SWIDTH 800 0
DWIDTH 10 0
BBX 8 10 1 0
BITMAP
3e
5b
83
b3
ab
73
63
63
63
63
ENDCHAR
STARTCHAR brokenbar
ENCODING 166
SWIDTH 960 0
DWIDTH 12 0
BBX 10 10 1 0
BITMAP
2840
7cc0
7cc0
acc0
8cc0
6cc0
0cc0
3fc0
2cc0
1840
ENDCHAR
STARTCHAR section
ENCODING 167
SWIDTH 640 0
DWIDTH 8 0
BBX 6 10 1 0
BITMAP
18
2c
2c
1c
0c
8c
4c
2c
1c
0c
ENDCHAR
STARTCHAR diaeresis
ENCODING 168
SWIDTH 720 0
DWIDTH 9 0
BBX 7 10 1 0
BITMAP
38
4c
66
b6
b6
76
36
36
36
1c
ENDCHAR
STARTCHAR copyright
ENCODING 169
SWIDTH 800 0
DWIDTH 10 0
BBX 8 10 1 0
BITMAP
3c
46
63
b3
b3
73
33
3f
35
23
ENDCHAR
STARTCHAR ordfeminine
ENCODING 170
SWIDTH 800 0
DWIDTH 10 0
BBX 8 10 1 0
BITMAP
63
b6
f4
fc
74
36
36
36
34
3c
ENDCHAR
STARTCHAR guillemotleft
ENCODING 171
SWIDTH 880 0
DWIDTH 11 0
BBX 10 10 1 0
BITMAP
58c0
7d80
ad80
af00
ad80
6d80
0d80
0d80
0d80
1f00
ENDCHAR
STARTCHAR notsign
ENCODING 172
SWIDTH 1040 0
DWIDTH 13 0
BBX 11 10 1 0
BITMAP
3c20
c660
8660
f660
6660
6660
6760
9ee0
9e60
6420
ENDCHAR
STARTCHAR hyphen
ENCODING 173
SWIDTH 1040 0
DWIDTH 13 0
BBX 11 15 1 -5
BITMAP
3c20
4460
c660
f660
6660
6660
7660
6e60
6e60
3380
0000
0660
0760
04c0
0380
ENDCHAR
STARTCHAR registered
ENCODING 174
SWIDTH 880 0
DWIDTH 11 0
BBX 9 14 1 -4
BITMAP
1e00
2380
7980
3180
3180
3180
7180
b180
b180
6580
0980
1980
2f80
1980
ENDCHAR
STARTCHAR macron
ENCODING 175
SWIDTH 880 0
DWIDTH 11 0
BBX 9 15 1 -5
BITMAP
1e00
3700
2180
f980
2180
2180
e180
a180
a180
7980
1980
2180
5f80
f980
0180
ENDCHAR
STARTCHAR degree
ENCODING 176
SWIDTH 720 0
DWIDTH 9 0
BBX 8 15 1 -5
BITMAP
31
5e
78
4c
66
b6
b6
76
36
3c
3c
72
ba
56
1e
ENDCHAR
STARTCHAR plusminus
ENCODING 177
SWIDTH 1040 0
DWIDTH 13 0
BBX 11 10 1 0
BITMAP
59c0
fd60
ad60
9e60
ae60
6e60
0c60
0c60
0c60
0c60
ENDCHAR
STARTCHAR twosuperior
ENCODING 178
SWIDTH 1120 0
DWIDTH 14 0
BBX 12 10 1 0
BITMAP
2410
7a30
cb30
db30
eb30
4b30
5330
67f0
6730
6310
ENDCHAR
STARTCHAR threesuperior
ENCODING 179
SWIDTH 1040 0
DWIDTH 13 0
BBX 12 10 1 0
BITMAP
3820
4c60
c660
f660
6660
6660
76e0
6f90
6e90
1660
ENDCHAR
STARTCHAR acute
ENCODING 180
SWIDTH 800 0
DWIDTH 10 0
BBX 8 10 1 0
BITMAP
3c
47
83
9b
ab
cb
53
63
63
63
ENDCHAR
STARTCHAR mu
ENCODING 181
SWIDTH 800 0
DWIDTH 10 0
BBX 8 10 1 0
BITMAP
3e
6a
c3
db
eb
cb
73
73
63
63
ENDCHAR
STARTCHAR paragraph
ENCODING 182
SWIDTH 800 0
DWIDTH 10 0
BBX 8 10 1 0
BITMAP
3c
47
c3
f3
63
63
73
6b
6b
32
ENDCHAR
STARTCHAR periodcentered
ENCODING 183
SWIDTH 880 0
DWIDTH 11 0
BBX 9 10 1 0
BITMAP
6300
b580
b580
7980
3980
3980
3980
3180
3180
3180
ENDCHAR
STARTCHAR cedilla
ENCODING 184
SWIDTH 720 0
DWIDTH 9 0
BBX 8 10 1 0
BITMAP
31
6e
b4
f0
3e
36
36
36
36
fc
ENDCHAR
STARTCHAR onesuperior
ENCODING 185
SWIDTH 880 0
DWIDTH 11 0
BBX 9 10 1 0
BITMAP
6080
b180
b180
7180
3180
3180
3700
3a80
3280
3100
ENDCHAR
STARTCHAR masculine
ENCODING 186
SWIDTH 880 0
DWIDTH 11 0
BBX 9 10 1 0
BITMAP
6180
b180
b180
7180
3180
3180
3180
3180
3180
7f00
ENDCHAR
STARTCHAR guillemotright
ENCODING 187
SWIDTH 880 0
DWIDTH 11 0
BBX 9 16 1 0
BITMAP
0080
0180
0180
0180
0180
0180
6180
b180
7180
3180
3180
3180
3180
3180
3180
3f00
ENDCHAR
STARTCHAR onequarter
ENCODING 188
SWIDTH 800 0
DWIDTH 10 0
BBX 8 10 1 0
BITMAP
63
93
93
e3
cb
db
e7
e7
c3
c2
ENDCHAR
STARTCHAR onehalf
ENCODING 189
SWIDTH 800 0
DWIDTH 10 0
BBX 8 16 1 0
BITMAP
01
03
03
03
03
03
63
93
93
e3
cb
db
e7
e7
c3
c2
ENDCHAR
STARTCHAR threequarters
ENCODING 190
SWIDTH 960 0
DWIDTH 12 0
BBX 10 10 1 0
BITMAP
62c0
b6c0
b6c0
76c0
35c0
39c0
39c0
39c0
30c0
30c0
ENDCHAR
STARTCHAR questiondown
ENCODING 191
SWIDTH 960 0
DWIDTH 12 0
BBX 10 16 1 0
BITMAP
0040
00c0
00c0
00c0
00c0
00c0
64c0
b6c0
76c0
35c0
39c0
39c0
39c0
39c0
30c0
30c0
ENDCHAR
STARTCHAR Agrave
ENCODING 192
SWIDTH 880 0
DWIDTH 11 0
BBX 9 10 1 0
BITMAP
1e00
2300
6180
7980
3180
3180
3180
f180
9180
6100
ENDCHAR
STARTCHAR Aacute
ENCODING 193
SWIDTH 880 0
DWIDTH 11 0
BBX 9 10 1 0
BITMAP
6080
b180
b180
7180
3180
3180
7180
bd80
b380
6180
ENDCHAR
STARTCHAR Acircumflex
ENCODING 194
SWIDTH 720 0
DWIDTH 9 0
BBX 7 10 1 0
BITMAP
62
d6
d6
e6
c6
66
c6
c6
c6
7c
ENDCHAR
STARTCHAR Atilde
ENCODING 195
SWIDTH 720 0
DWIDTH 9 0
BBX 7 10 1 0
BITMAP
32
7c
e0
1c
0c
0c
0c
3c
24
1c
ENDCHAR
STARTCHAR Adiaeresis
ENCODING 196
SWIDTH 800 0
DWIDTH 10 0
BBX 7 15 1 -5
BITMAP
78
84
86
f6
c6
c6
c6
f6
ce
76
06
06
06
06
06
ENDCHAR
STARTCHAR Aring
ENCODING 197
SWIDTH 720 0
DWIDTH 9 0
BBX 7 10 1 0
BITMAP
38
c6
3e
66
66
66
66
76
4e
36
ENDCHAR
STARTCHAR AE
ENCODING 198
SWIDTH 880 0
DWIDTH 11 0
BBX 9 15 1 -5
BITMAP
3e00
2300
4180
7980
3180
3180
3180
f180
a180
6180
0180
0180
0180
0180
0180
ENDCHAR
STARTCHAR Ccedilla
ENCODING 199
SWIDTH 720 0
DWIDTH 9 0
BBX 7 10 1 0
BITMAP
38
c6
06
06
06
06
06
1e
16
0c
ENDCHAR
STARTCHAR Egrave
ENCODING 200
SWIDTH 800 0
DWIDTH 10 0
BBX 8 10 1 0
BITMAP
39
47
83
b7
cb
73
63
63
63
63
ENDCHAR
STARTCHAR Eacute
ENCODING 201
SWIDTH 880 0
DWIDTH 11 0
BBX 9 10 1 0
BITMAP
6080
b180
b180
7180
3d80
3980
3f80
3180
3180
7f00
ENDCHAR
STARTCHAR Ecircumflex
ENCODING 202
SWIDTH 800 0
DWIDTH 10 0
BBX 9 10 1 0
BITMAP
3980
c700
3e00
6600
6600
6600
7600
6e00
6e00
3600
ENDCHAR
STARTCHAR Ediaeresis
ENCODING 203
SWIDTH 880 0
DWIDTH 11 0
BBX 9 10 1 0
BITMAP
6100
b280
b280
7700
3500
3980
3180
3180
3180
3180
ENDCHAR
STARTCHAR Igrave
ENCODING 204
SWIDTH 1120 0
DWIDTH 14 0
BBX 12 10 1 0
BITMAP
63b0
b560
b7c0
76c0
36c0
39c0
39c0
39c0
30c0
30c0
ENDCHAR
STARTCHAR Iacute
ENCODING 205
SWIDTH 720 0
DWIDTH 9 0
BBX 7 10 1 0
BITMAP
78
8c
66
d6
d6
e6
c6
c6
44
38
ENDCHAR
STARTCHAR Icircumflex
ENCODING 206
SWIDTH 720 0
DWIDTH 9 0
BBX 7 10 1 0
BITMAP
7e
8e
8e
7e
66
96
96
e6
c4
38
ENDCHAR
STARTCHAR Idiaeresis
ENCODING 207
SWIDTH 880 0
DWIDTH 11 0
BBX 8 10 2 0
BITMAP
07
0b
eb
8b
93
63
03
03
03
03
ENDCHAR
STARTCHAR ETH
ENCODING 208
SWIDTH 720 0
DWIDTH 9 0
BBX 7 9 1 0
BITMAP
42
a6
78
00
00
42
a2
ac
78
ENDCHAR
STARTCHAR Ntilde
ENCODING 209
SWIDTH 0 0
DWIDTH 0 0
BBX 9 4 -7 11
BITMAP
6180
9180
f300
3e00
ENDCHAR
STARTCHAR Ograve
ENCODING 210
SWIDTH 560 0
DWIDTH 7 0
BBX 5 10 1 0
BITMAP
60
90
18
18
18
18
18
18
18
18
ENDCHAR
STARTCHAR Oacute
ENCODING 211
SWIDTH 560 0
DWIDTH 7 0
BBX 12 15 -6 0
BITMAP
6000
9000
9000
6000
0000
01c0
0120
0030
0030
0030
0030
0030
0030
0030
0030
ENDCHAR
STARTCHAR Ocircumflex
ENCODING 212
SWIDTH 0 0
DWIDTH 0 0
BBX 8 4 -9 11
BITMAP
3c
c2
fd
03
ENDCHAR
STARTCHAR Otilde
ENCODING 213
SWIDTH 0 0
DWIDTH 0 0
BBX 8 5 -9 11
BITMAP
02
3e
c6
fa
07
ENDCHAR
STARTCHAR Odiaeresis
ENCODING 214
SWIDTH 0 0
DWIDTH 0 0
BBX 8 6 -9 11
BITMAP
02
05
3d
c6
fd
03
ENDCHAR
STARTCHAR multiply
ENCODING 215
SWIDTH 0 0
DWIDTH 0 0
BBX 8 6 -8 11
BITMAP
0a
0a
3e
42
fe
03
ENDCHAR
STARTCHAR Ooblique
ENCODING 216
SWIDTH 0 0
DWIDTH 0 0
BBX 4 4 -5 -5
BITMAP
60
90
70
30
ENDCHAR
STARTCHAR Ugrave
ENCODING 217
SWIDTH 0 0
DWIDTH 0 0
BBX 6 5 -7 -5
BITMAP
40
ac
6c
2c
3c
ENDCHAR
STARTCHAR Uacute
ENCODING 218
SWIDTH 0 0
DWIDTH 0 0
BBX 3 3 -4 -4
BITMAP
e0
e0
e0
ENDCHAR
STARTCHAR Ucircumflex
ENCODING 219
SWIDTH 400 0
DWIDTH 5 0
BBX 0 0 0 0
BITMAP
ENDCHAR
STARTCHAR Udiaeresis
ENCODING 220
SWIDTH 400 0
DWIDTH 5 0
BBX 5 2 0 -2
BITMAP
f8
88
ENDCHAR
STARTCHAR ssharp
ENCODING 223
SWIDTH 880 0
DWIDTH 11 0
BBX 9 13 1 0
BITMAP
0800
0800
fe00
6b00
6980
6b00
7e00
6b80
6980
6980
6980
6f00
9800
ENDCHAR
STARTCHAR agrave
ENCODING 224
SWIDTH 320 0
DWIDTH 4 0
BBX 3 10 1 0
BITMAP
40
c0
c0
c0
c0
c0
c0
a0
a0
40
ENDCHAR
STARTCHAR aacute
ENCODING 225
SWIDTH 720 0
DWIDTH 9 0
BBX 8 10 1 0
BITMAP
46
c6
c6
c6
c6
c6
c6
a9
ab
44
ENDCHAR
STARTCHAR acircumflex
ENCODING 226
SWIDTH 480 0
DWIDTH 6 0
BBX 7 17 -1 0
BITMAP
32
dc
8c
60
30
18
18
18
18
18
18
18
18
18
14
14
08
ENDCHAR
STARTCHAR atilde
ENCODING 227
SWIDTH 480 0
DWIDTH 6 0
BBX 6 17 -1 0
BITMAP
70
98
b8
b8
58
18
18
18
18
18
18
18
18
18
14
14
08
ENDCHAR
STARTCHAR adiaeresis
ENCODING 228
SWIDTH 560 0
DWIDTH 7 0
BBX 8 17 -1 0
BITMAP
8c
56
56
56
56
56
66
06
06
06
06
06
06
06
0b
0b
04
ENDCHAR
STARTCHAR aring
ENCODING 229
SWIDTH 560 0
DWIDTH 7 0
BBX 5 15 1 -5
BITMAP
60
98
18
18
18
18
18
18
18
18
18
18
18
18
18
ENDCHAR
STARTCHAR ae
ENCODING 230
SWIDTH 640 0
DWIDTH 8 0
BBX 6 15 1 -5
BITMAP
58
ac
8c
8c
ec
6c
0c
0c
0c
0c
0c
0c
0c
0c
0c
ENDCHAR
STARTCHAR ccedilla
ENCODING 231
SWIDTH 0 0
DWIDTH 0 0
BBX 7 5 -6 11
BITMAP
06
7c
cc
fe
7c
ENDCHAR
STARTCHAR egrave
ENCODING 232
SWIDTH 0 0
DWIDTH 0 0
BBX 1 3 -3 18
BITMAP
80
80
80
ENDCHAR
STARTCHAR eacute
ENCODING 233
SWIDTH 0 0
DWIDTH 0 0
BBX 6 4 -6 18
BITMAP
64
94
78
70
ENDCHAR
STARTCHAR ecircumflex
ENCODING 234
SWIDTH 0 0
DWIDTH 0 0
BBX 8 5 -6 19
BITMAP
59
a5
86
6e
68
ENDCHAR
STARTCHAR ediaeresis
ENCODING 235
SWIDTH 0 0
DWIDTH 0 0
BBX 5 5 -6 19
BITMAP
20
20
f8
20
20
ENDCHAR
STARTCHAR igrave
ENCODING 236
SWIDTH 0 0
DWIDTH 0 0
BBX 4 4 -4 18
BITMAP
10
60
a0
60
ENDCHAR
STARTCHAR iacute
ENCODING 237
SWIDTH 0 0
DWIDTH 0 0
BBX 4 4 -5 11
BITMAP
60
90
90
60
ENDCHAR
STARTCHAR icircumflex
ENCODING 238
SWIDTH 0 0
DWIDTH 0 0
BBX 5 5 -4 12
BITMAP
38
40
60
80
e0
ENDCHAR
STARTCHAR idiaeresis
ENCODING 239
SWIDTH 720 0
DWIDTH 9 0
BBX 8 7 1 1
BITMAP
3c
42
bf
bf
bd
42
3c
ENDCHAR
STARTCHAR eth
ENCODING 240
SWIDTH 720 0
DWIDTH 9 0
BBX 7 7 1 0
BITMAP
38
44
82
82
82
44
38
ENDCHAR
STARTCHAR ntilde
ENCODING 241
SWIDTH 720 0
DWIDTH 9 0
BBX 7 7 1 0
BITMAP
3c
44
82
ba
ba
ce
34
ENDCHAR
STARTCHAR ograve
ENCODING 242
SWIDTH 1040 0
DWIDTH 13 0
BBX 11 11 1 0
BITMAP
c000
c000
c000
c000
ccc0
cfe0
d120
dd20
cd20
e040
7f80
ENDCHAR
STARTCHAR oacute
ENCODING 243
SWIDTH 960 0
DWIDTH 12 0
BBX 10 7 1 0
BITMAP
3980
7f80
46c0
8240
ba40
ba40
7480
ENDCHAR
STARTCHAR ocircumflex
ENCODING 244
SWIDTH 960 0
DWIDTH 12 0
BBX 10 11 1 0
BITMAP
0040
0040
0080
0f00
3800
6780
cd80
c880
ce00
6780
3840
ENDCHAR
STARTCHAR otilde
ENCODING 245
SWIDTH 960 0
DWIDTH 12 0
BBX 10 11 1 0
BITMAP
0040
0c40
12c0
1f80
1c00
3380
4580
c480
c600
c700
3980
ENDCHAR
STARTCHAR odiaeresis
ENCODING 246
SWIDTH 720 0
DWIDTH 9 0
BBX 8 11 0 0
BITMAP
80
c0
40
40
7c
42
01
71
71
62
3c
ENDCHAR
STARTCHAR division
ENCODING 247
SWIDTH 1040 0
DWIDTH 13 0
BBX 11 11 1 0
BITMAP
0180
01c0
00c0
0060
6720
ffa0
88a0
80a0
90c0
f1c0
6380
ENDCHAR
STARTCHAR oslash
ENCODING 248
SWIDTH 960 0
DWIDTH 12 0
BBX 10 11 1 0
BITMAP
0040
0040
0040
0040
7880
ff80
c300
8100
b180
fd80
6700
ENDCHAR
STARTCHAR ugrave
ENCODING 249
SWIDTH 720 0
DWIDTH 9 0
BBX 7 11 1 0
BITMAP
02
02
3c
40
3c
40
cc
cc
cc
44
38
ENDCHAR
STARTCHAR uacute
ENCODING 250
SWIDTH 960 0
DWIDTH 12 0
BBX 10 10 1 0
BITMAP
0e40
0e40
6e40
9640
9640
6640
0640
0640
0640
0640
ENDCHAR
STARTCHAR ucircumflex
ENCODING 251
SWIDTH 1600 0
DWIDTH 20 0
BBX 18 9 1 0
BITMAP
3c0000
440000
800000
800000
812440
81dac0
c24980
660000
380000
ENDCHAR
STARTCHAR udiaeresis
ENCODING 252
SWIDTH 0 0
DWIDTH 0 0
BBX 4 5 -5 -11
BITMAP
60
90
70
30
30
ENDCHAR
STARTCHAR yacute
ENCODING 253
SWIDTH 0 0
DWIDTH 0 0
BBX 6 5 -7 -10
BITMAP
0c
fc
fc
3c
3c
ENDCHAR
STARTCHAR thorn
ENCODING 254
SWIDTH 0 0
DWIDTH 0 0
BBX 3 3 -4 -9
BITMAP
e0
e0
e0
ENDCHAR
STARTCHAR C000400
ENCODING 256
SWIDTH 320 0
DWIDTH 4 0
BBX 0 0 0 0
BITMAP
ENDCHAR
STARTCHAR C000401
ENCODING 257
SWIDTH 320 0
DWIDTH 4 0
BBX 0 0 0 0
BITMAP
ENDCHAR
STARTCHAR C000430
ENCODING 280
SWIDTH 320 0
DWIDTH 4 0
BBX 0 0 0 0
BITMAP
ENDCHAR
STARTCHAR C001103
ENCODING 579
SWIDTH 640 0
DWIDTH 8 0
BBX 8 1 0 3
BITMAP
ff
ENDCHAR
STARTCHAR C001104
ENCODING 580
SWIDTH 1280 0
DWIDTH 16 0
BBX 16 1 0 3
BITMAP
ffff
ENDCHAR
STARTCHAR C001107
ENCODING 583
SWIDTH 400 0
DWIDTH 5 0
BBX 3 5 1 6
BITMAP
60
80
e0
e0
60
ENDCHAR
STARTCHAR C001110
ENCODING 584
SWIDTH 400 0
DWIDTH 5 0
BBX 3 5 1 6
BITMAP
c0
e0
e0
20
c0
ENDCHAR
STARTCHAR C001113
ENCODING 587
SWIDTH 640 0
DWIDTH 8 0
BBX 6 5 1 6
BITMAP
6c
90
fc
fc
6c
ENDCHAR
STARTCHAR C001114
ENCODING 588
SWIDTH 640 0
DWIDTH 8 0
BBX 6 5 1 6
BITMAP
d8
fc
fc
24
d8
ENDCHAR
STARTCHAR C001115
ENCODING 589
SWIDTH 640 0
DWIDTH 8 0
BBX 6 5 1 -3
BITMAP
d8
fc
fc
24
d8
ENDCHAR
STARTCHAR C001121
ENCODING 593
SWIDTH 480 0
DWIDTH 6 0
BBX 5 4 0 3
BITMAP
70
f8
f8
70
ENDCHAR
STARTCHAR C001122
ENCODING 594
SWIDTH 1280 0
DWIDTH 16 0
BBX 14 3 1 -1
BITMAP
e71c
e71c
e71c
ENDCHAR
ENDFONT
